<svg xmlns="http://www.w3.org/2000/svg" width="36.288" height="36.288" viewBox="0 0 36.288 36.288">
  <g id="isntagram" transform="translate(-66.447 -602.446)">
    <g id="Ellipse_5" data-name="Ellipse 5" transform="translate(66.447 602.447)" fill="none" stroke="#fff" stroke-width="1.5">
      <circle cx="18.144" cy="18.144" r="18.144" stroke="none"/>
      <circle cx="18.144" cy="18.144" r="17.394" fill="none"/>
    </g>
    <g id="instagram" transform="translate(77.19 613.19)">
      <g id="Group_11" data-name="Group 11">
        <g id="Group_10" data-name="Group 10">
          <path id="Path_8" data-name="Path 8" d="M10.173,0H4.624A4.624,4.624,0,0,0,0,4.624v5.549A4.624,4.624,0,0,0,4.624,14.8h5.549A4.624,4.624,0,0,0,14.8,10.173V4.624A4.624,4.624,0,0,0,10.173,0ZM13.41,10.173a3.24,3.24,0,0,1-3.237,3.237H4.624a3.24,3.24,0,0,1-3.237-3.237V4.624A3.24,3.24,0,0,1,4.624,1.387h5.549A3.24,3.24,0,0,1,13.41,4.624Z" fill="#fff"/>
        </g>
      </g>
      <g id="Group_13" data-name="Group 13" transform="translate(3.699 3.699)">
        <g id="Group_12" data-name="Group 12">
          <path id="Path_9" data-name="Path 9" d="M131.7,128a3.7,3.7,0,1,0,3.7,3.7A3.7,3.7,0,0,0,131.7,128Zm0,6.011a2.312,2.312,0,1,1,2.312-2.312A2.315,2.315,0,0,1,131.7,134.011Z" transform="translate(-128 -128)" fill="#fff"/>
        </g>
      </g>
      <g id="Group_15" data-name="Group 15" transform="translate(10.882 2.929)">
        <g id="Group_14" data-name="Group 14">
          <circle id="Ellipse_4" data-name="Ellipse 4" cx="0.493" cy="0.493" r="0.493" fill="#fff"/>
        </g>
      </g>
    </g>
  </g>
</svg>
