<svg xmlns="http://www.w3.org/2000/svg" width="23.065" height="20.182" viewBox="0 0 23.065 20.182">
  <g id="login-square-arrow-button-outline" transform="translate(0 -38.25)">
    <g id="_x36__30_" transform="translate(0 38.25)">
      <g id="Group_22" data-name="Group 22">
        <path id="Path_10" data-name="Path 10" d="M12.5,52.84a.721.721,0,0,0,1.019,1.019l4.973-4.973a.832.832,0,0,0,0-1.091L13.52,42.822A.721.721,0,0,0,12.5,43.841l3.779,3.779H.721a.721.721,0,0,0,0,1.442H16.279Zm7.681-14.59H5.766a2.883,2.883,0,0,0-2.883,2.883v2.883H4.325V41.133a1.442,1.442,0,0,1,1.442-1.442H20.182a1.442,1.442,0,0,1,1.442,1.442V55.549a1.442,1.442,0,0,1-1.442,1.442H5.766a1.441,1.441,0,0,1-1.442-1.442V52.666H2.883v2.883a2.883,2.883,0,0,0,2.883,2.883H20.182a2.883,2.883,0,0,0,2.883-2.883V41.133A2.883,2.883,0,0,0,20.182,38.25Z" transform="translate(0 -38.25)" fill="#fff"/>
      </g>
    </g>
  </g>
</svg>
